<svg width="414" height="223" viewBox="0 0 414 223" fill="none" xmlns="http://www.w3.org/2000/svg">
<path fill-rule="evenodd" clip-rule="evenodd" d="M68.7119 11C68.3719 11.55 66.9958 12 65.6528 12C64.1498 12 63.2119 12.576 63.2119 13.5C63.2119 14.58 62.1069 15 59.2689 15C56.6579 15 54.8839 15.597 54.0189 16.767C53.2999 17.739 51.3619 19.397 49.7119 20.451C48.0619 21.505 46.0858 22.99 45.3218 23.752C44.5568 24.514 42.8698 25.834 41.5718 26.684C40.2738 27.534 39.2119 28.853 39.2119 29.615C39.2119 30.377 38.7619 31 38.2119 31C37.6619 31 37.2119 31.623 37.2119 32.383C37.2119 33.144 36.2538 34.017 35.0818 34.324C33.6588 34.696 33.1508 35.399 33.5508 36.44C33.8798 37.298 33.7128 38 33.1808 38C32.6478 38 32.2119 39.077 32.2119 40.393C32.2119 41.709 31.5369 43.045 30.7119 43.362C29.8869 43.678 29.2119 44.851 29.2119 45.969C29.2119 47.086 28.7619 48 28.2119 48C27.6619 48 27.2119 49.548 27.2119 51.441C27.2119 53.334 26.7619 55.16 26.2119 55.5C25.5709 55.896 25.2119 71.177 25.2119 98.059C25.2119 125.353 25.5609 140 26.2119 140C26.7619 140 27.2119 141.575 27.2119 143.5C27.2119 145.425 27.6619 147 28.2119 147C28.7619 147 29.2038 147.563 29.1938 148.25C29.1608 150.542 34.6939 160.945 35.9609 160.973C36.6479 160.988 35.4099 162.854 33.2109 165.121C31.0119 167.387 29.2119 169.637 29.2119 170.121C29.2119 170.604 28.7568 171 28.1998 171C26.8408 171 15.2119 182.579 15.2119 183.932C15.2119 184.52 14.7619 185 14.2119 185C13.6619 185 13.2119 185.513 13.2119 186.14C13.2119 186.767 12.5639 187.779 11.7719 188.39C10.8989 189.063 10.2279 191.664 10.0679 194.995C9.85087 199.507 10.1089 200.549 11.5079 200.818C12.4449 200.999 13.2119 201.686 13.2119 202.345C13.2119 203.005 14.5949 205.222 16.2849 207.272C18.5559 210.027 20.1219 211 22.2849 211C23.8949 211 25.2119 211.45 25.2119 212C25.2119 212.55 26.5619 213 28.2119 213C29.8619 213 31.2119 212.55 31.2119 212C31.2119 211.45 32.3369 211 33.7119 211C35.0869 211 36.2119 210.55 36.2119 210C36.2119 209.45 37.0488 209 38.0718 209C39.0948 209 40.7768 207.875 41.8088 206.5C42.8418 205.125 44.1788 204 44.7798 204C45.3818 204 46.4498 202.925 47.1528 201.61C47.8568 200.296 49.5078 198.645 50.8218 197.941C52.1368 197.238 53.2119 196.256 53.2119 195.76C53.2119 194.726 55.7489 192 56.7119 192C57.5459 192 60.2119 189.334 60.2119 188.5C60.2119 188.146 60.8549 187.214 61.6409 186.429C63.2189 184.85 70.2119 184.45 70.2119 185.938C70.2119 186.941 86.9499 188.059 101.712 188.041C118.592 188.02 138.212 186.894 138.212 185.946C138.212 185.426 139.839 185 141.828 185C145.751 185 155.212 182.007 155.212 180.765C155.212 180.344 156.112 180 157.212 180C158.312 180 159.212 179.55 159.212 179C159.212 178.45 160.304 178 161.639 178C163.038 178 164.901 176.94 166.033 175.5C167.115 174.125 168.533 173 169.184 173C169.836 173 172.151 171.2 174.329 169C176.507 166.8 178.722 165 179.251 165C179.779 165 180.212 164.132 180.212 163.071C180.212 162.011 180.887 160.468 181.712 159.643C182.537 158.818 183.212 157.661 183.212 157.071C183.212 156.482 183.662 156 184.212 156C184.762 156 185.212 155.311 185.212 154.469C185.212 153.626 185.887 152.678 186.712 152.362C187.537 152.045 188.212 150.736 188.212 149.452C188.212 148.168 188.662 146.84 189.212 146.5C189.762 146.16 190.212 144.559 190.212 142.941C190.212 141.323 190.626 140 191.133 140C191.639 140 192.34 138.538 192.691 136.75C193.642 131.904 195.308 128.917 199.384 124.752C202.758 121.303 203.506 121 208.634 121C211.702 121 214.212 121.398 214.212 121.883C214.212 122.369 215.145 123.011 216.286 123.309C217.427 123.607 218.605 124.785 218.903 125.926C219.201 127.067 219.843 128 220.329 128C220.814 128 221.212 128.627 221.212 129.393C221.212 130.159 221.887 131.045 222.712 131.362C223.576 131.693 224.212 133.187 224.212 134.885C224.212 136.507 224.638 137.983 225.159 138.167C225.679 138.35 226.253 141.2 226.433 144.5C226.71 149.571 227.106 150.653 228.987 151.487C230.211 152.03 231.212 152.973 231.212 153.583C231.212 157.405 240.931 168.882 248.501 174C250.534 175.375 252.201 176.837 252.205 177.25C252.209 177.663 253.337 178 254.712 178C256.087 178 257.212 178.45 257.212 179C257.212 179.55 257.739 180 258.383 180C259.027 180 260.329 180.7 261.275 181.557C262.221 182.413 264.259 183.248 265.805 183.413C267.351 183.578 268.788 184.227 268.997 184.855C269.243 185.592 270.723 185.782 273.169 185.391C275.498 185.018 277.225 185.212 277.645 185.892C278.077 186.591 282.293 187 289.071 187C295.362 187 300.255 187.443 300.881 188.069C301.581 188.769 305.541 188.938 312.331 188.559C318.041 188.24 327.55 187.731 333.462 187.427C339.374 187.124 344.212 186.453 344.212 185.938C344.212 183.802 350.967 185.028 353.576 187.636C355.026 189.086 356.212 190.585 356.212 190.967C356.212 191.349 357.337 192.264 358.712 193C360.087 193.736 361.212 194.744 361.212 195.24C361.212 196.488 363.837 199 365.141 199C365.73 199 366.212 199.47 366.212 200.045C366.212 200.62 367.317 202.195 368.667 203.545C370.017 204.895 371.592 206 372.167 206C372.742 206 373.212 206.513 373.212 207.14C373.212 209.738 376.854 210.937 384.844 210.968L392.977 211L397.094 206.882C400.295 203.682 401.212 202.011 401.212 199.382C401.212 197.522 401.662 196 402.212 196C403.625 196 403.455 192.658 401.962 191.075C400.962 190.015 400.962 189.658 401.962 189.292C403.904 188.58 403.434 186.205 401.212 185.5C400.112 185.151 399.212 184.516 399.212 184.088C399.212 182.731 394.7 178 393.405 178C392.722 178 391.735 176.875 391.212 175.5C390.689 174.125 389.575 173 388.737 173C387.898 173 387.212 172.55 387.212 172C387.212 171.45 386.537 171 385.712 171C384.879 171 384.212 170.111 384.212 169C384.212 167.9 383.762 167 383.212 167C382.662 167 382.212 166.487 382.212 165.86C382.212 165.233 381.505 164.203 380.64 163.571C378.987 162.362 379.542 157 381.32 157C381.811 157 382.212 156.325 382.212 155.5C382.212 154.675 382.662 154 383.212 154C383.762 154 384.212 152.875 384.212 151.5C384.212 150.035 384.786 149 385.599 149C387.097 149 388.072 145.513 388.882 137.25C389.165 134.362 389.805 132 390.305 132C390.831 132 391.212 117.086 391.212 96.5C391.212 73.5 390.86 61 390.212 61C389.662 61 389.212 58.777 389.212 56.059C389.212 53.341 388.762 50.84 388.212 50.5C387.662 50.16 387.212 48.839 387.212 47.563C387.212 46.288 386.537 44.685 385.712 44C384.887 43.315 384.212 41.91 384.212 40.878C384.212 39.845 383.814 39 383.329 39C382.843 39 382.201 38.067 381.903 36.926C381.605 35.785 380.427 34.607 379.286 34.309C378.145 34.011 377.198 33.032 377.18 32.133C377.145 30.329 374.917 27 373.746 27C373.335 27 372.115 25.875 371.033 24.5C369.952 23.125 368.2 22 367.139 22C366.079 22 365.212 21.325 365.212 20.5C365.212 19.675 364.65 18.99 363.962 18.978C363.275 18.966 361.587 18.076 360.212 17C358.837 15.924 356.249 15.034 354.462 15.022C352.25 15.007 351.212 14.521 351.212 13.5C351.212 12.457 350.163 12 347.771 12C345.878 12 344.052 11.55 343.712 11C343.305 10.341 296.388 10 206.212 10C116.036 10 69.1189 10.341 68.7119 11ZM226.212 44.227C273.787 44.244 316.465 43.926 321.052 43.519C326.754 43.014 329.743 43.131 330.502 43.89C331.113 44.501 333.547 45 335.912 45C339.068 45 340.212 45.399 340.212 46.5C340.212 47.333 341.101 48 342.212 48C343.312 48 344.212 48.45 344.212 49C344.212 49.55 344.775 50.012 345.462 50.028C346.15 50.043 347.837 51.605 349.212 53.5C350.587 55.395 352.275 56.957 352.962 56.972C353.65 56.988 354.212 58.125 354.212 59.5C354.212 60.875 354.662 62 355.212 62C355.86 62 356.212 74.5 356.212 97.5C356.212 120.5 355.86 133 355.212 133C354.662 133 354.212 134.125 354.212 135.5C354.212 137.056 353.645 138 352.712 138C351.868 138 351.212 138.894 351.212 140.045C351.212 142.374 347.012 147 344.898 147C344.125 147 342.647 148.125 341.615 149.5C340.328 151.214 338.774 152 336.675 152C334.99 152 333.122 152.49 332.524 153.088C330.733 154.879 281.732 152.883 279.762 150.938C279.24 150.422 277.552 150 276.012 150C274.19 150 273.212 149.476 273.212 148.5C273.212 147.675 272.533 147 271.702 147C270.872 147 269.422 146.1 268.48 145C267.538 143.9 266.193 143 265.49 143C264.787 143 264.212 142.52 264.212 141.933C264.212 141.347 263.087 139.392 261.712 137.589C260.337 135.786 259.212 133.368 259.212 132.215C259.212 131.062 258.762 129.84 258.212 129.5C257.662 129.16 257.212 127.389 257.212 125.563C257.212 123.738 256.537 121.685 255.712 121C254.887 120.315 254.212 118.947 254.212 117.959C254.212 115.885 251.075 110.016 249.962 110.006C249.55 110.003 249.212 109.159 249.212 108.131C249.212 105.954 238.712 95 236.626 95C235.848 95 235.212 94.55 235.212 94C235.212 93.45 234.537 93 233.712 93C232.887 93 232.212 92.633 232.212 92.185C232.212 90.967 225.496 88 222.737 88C221.413 88 220.052 87.55 219.712 87C219.358 86.428 214.202 86 207.653 86C200.692 86 196.212 86.392 196.212 87C196.212 87.55 195.065 88 193.662 88C191.322 88 185.398 90.439 184.212 91.891C183.937 92.228 182.362 93.148 180.712 93.936C176.437 95.978 165.222 107.983 164.538 111.25C164.221 112.763 163.568 114 163.087 114C162.606 114 162.202 115.013 162.19 116.25C162.178 117.487 161.309 119.617 160.26 120.982C158.855 122.812 158.636 123.807 159.431 124.764C160.221 125.716 160.106 126.388 159.001 127.281C158.171 127.952 156.932 130.597 156.247 133.161C155.425 136.237 154.358 137.99 153.107 138.317C152.008 138.605 151.212 139.692 151.212 140.906C151.212 142.058 150.645 143 149.953 143C149.26 143 148.131 143.9 147.444 145C146.757 146.1 145.579 147 144.826 147C144.073 147 142.88 147.695 142.174 148.546C141.469 149.396 140.225 149.835 139.411 149.523C138.597 149.21 136.96 149.59 135.775 150.367C132.848 152.285 125.87 153.03 105.212 153.629C88.3019 154.12 76.2119 152.938 76.2119 150.794C76.2119 150.357 75.3119 150 74.2119 150C73.1009 150 72.2119 149.333 72.2119 148.5C72.2119 147.675 71.7419 147 71.1669 147C69.8669 147 65.2119 142.429 65.2119 141.152C65.2119 140.636 64.5369 139.955 63.7119 139.638C62.8869 139.322 62.2119 138.149 62.2119 137.031C62.2119 135.914 61.7619 135 61.2119 135C60.5629 135 60.2119 122.051 60.2119 98.154C60.2119 66.642 60.4399 60.851 61.7849 58.154C62.6509 56.419 63.7759 55 64.2849 55C64.7949 55 65.2119 54.518 65.2119 53.929C65.2119 52.358 67.2759 50.569 70.9619 48.944C72.7499 48.156 74.2119 46.947 74.2119 46.256C74.2119 45.395 76.0219 44.995 79.9619 44.985C83.1249 44.976 86.3869 44.541 87.2119 44.019C88.1209 43.443 98.7659 43.29 114.212 43.632C128.237 43.942 178.637 44.21 226.212 44.227Z" fill="#636AE8"/>
</svg>
