<svg width="375" height="444" viewBox="0 0 375 444" fill="none" xmlns="http://www.w3.org/2000/svg">
<g opacity="0.06">
<path d="M-5.75051 306.359L100.014 306.359L100.014 413.715C100.014 429.888 113.11 443.066 129.33 443.066L245.066 443.066C261.219 443.066 274.382 429.955 274.382 413.715L274.382 356.011L229.244 356.011L229.244 397.875L145.218 397.875L145.218 180.102L182.312 180.102L182.312 134.91L100.08 134.91L100.08 261.168L10.1374 261.168L10.1374 180.102L55.142 180.102L55.142 134.91L-5.68401 134.91C-21.8378 134.91 -35.0002 148.021 -35.0002 164.261L-35.0002 277.008C-35.0002 293.181 -21.9043 306.359 -5.75051 306.359Z" fill="#069494"/>
<path d="M145.152 45.2582L229.178 45.2583L229.178 261.168L191.419 261.168L191.419 306.359L274.316 306.359L274.316 180.168L362.862 180.168L362.862 261.168L318.589 261.168L318.589 306.359L378.684 306.359C394.904 306.359 408 293.181 408 277.008L408 164.261C408 148.088 394.904 134.91 378.684 134.91L274.316 134.91L274.316 29.3513C274.316 13.178 261.22 -0.000134902 244.999 -0.00013632L129.264 -0.000146438C113.11 -0.00014785 99.9475 13.1115 99.9475 29.3513L99.9475 90.0508L145.085 90.0508L145.085 45.2582L145.152 45.2582Z" fill="#069494"/>
</g>
</svg>
