<svg width="21" height="21" viewBox="0 0 21 21" fill="none" xmlns="http://www.w3.org/2000/svg">
<g clip-path="url(#clip0_226_21222)">
<path d="M20.3052 10.7312C20.3052 10.0514 20.2501 9.36797 20.1325 8.69922H10.7002V12.55H16.1016C15.8775 13.792 15.1573 14.8907 14.1027 15.5888V18.0874H17.3252C19.2176 16.3457 20.3052 13.7736 20.3052 10.7312Z" fill="#4285F4"/>
<path d="M10.6999 20.4998C13.397 20.4998 15.6714 19.6143 17.3286 18.0857L14.1061 15.5871C13.2096 16.197 12.0521 16.5424 10.7036 16.5424C8.09474 16.5424 5.88272 14.7824 5.08904 12.416H1.76367V14.9918C3.46127 18.3686 6.91892 20.4998 10.6999 20.4998V20.4998Z" fill="#34A853"/>
<path d="M5.08564 12.4163C4.66676 11.1743 4.66676 9.82947 5.08564 8.5875V6.01172H1.76395C0.345611 8.83737 0.345611 12.1664 1.76395 14.9921L5.08564 12.4163V12.4163Z" fill="#FBBC04"/>
<path d="M10.6999 4.45805C12.1256 4.436 13.5035 4.97247 14.536 5.95722L17.3911 3.10218C15.5833 1.40459 13.1838 0.471278 10.6999 0.500674C6.91892 0.500674 3.46126 2.63185 1.76367 6.01234L5.08537 8.58813C5.87537 6.21811 8.09106 4.45805 10.6999 4.45805V4.45805Z" fill="#EA4335"/>
</g>
<defs>
<clipPath id="clip0_226_21222">
<rect width="20" height="20" fill="white" transform="translate(0.5 0.5)"/>
</clipPath>
</defs>
</svg>
